<svg xmlns="http://www.w3.org/2000/svg" xmlns:xlink="http://www.w3.org/1999/xlink" version="1.1" width="1000" height="1000" viewBox="0 0 1000 1000" xml:space="preserve">
<desc>Created with Fabric.js 3.5.0</desc>
<defs>
</defs>
<rect x="0" y="0" width="100%" height="100%" fill="rgba(255,255,255,0.04)"/>
<g transform="matrix(56.8182 0 0 56.8182 500.0001 500.0001)" id="385656">
<g style="" vector-effect="non-scaling-stroke">
		<g transform="matrix(1 0 0 1 0 -2)">
<path style="stroke: none; stroke-width: 1; stroke-dasharray: none; stroke-linecap: butt; stroke-dashoffset: 0; stroke-linejoin: miter; stroke-miterlimit: 4; is-custom-font: none; font-file-url: none; fill: rgb(6,14,86); fill-rule: nonzero; opacity: 1;" transform=" translate(-8, -6)" d="M 11 6 a 3 3 0 1 1 -6 0 a 3 3 0 0 1 6 0 z" stroke-linecap="round"/>
</g>
		<g transform="matrix(1 0 0 1 0 0)">
<path style="stroke: none; stroke-width: 1; stroke-dasharray: none; stroke-linecap: butt; stroke-dashoffset: 0; stroke-linejoin: miter; stroke-miterlimit: 4; is-custom-font: none; font-file-url: none; fill: rgb(6,14,86); fill-rule: evenodd; opacity: 1;" transform=" translate(-8, -8)" d="M 0 8 a 8 8 0 1 1 16 0 A 8 8 0 0 1 0 8 z m 8 -7 a 7 7 0 0 0 -5.468 11.37 C 3.242 11.226 4.805 10 8 10 s 4.757 1.225 5.468 2.37 A 7 7 0 0 0 8 1 z" stroke-linecap="round"/>
</g>
</g>
</g>
</svg>